/* XPM */
static char *_b73beaf26614952d4612f8137429b99yRsIswWdoKzw20Wx[] = {
/* columns rows colors chars-per-pixel */
"64 64 191 2 ",
"   c None",
".  c #020000",
"X  c #0D0303",
"o  c #140909",
"O  c #1D0C0C",
"+  c #220F10",
"@  c #271313",
"#  c #331D1C",
"$  c #3C1D1D",
"%  c #35201F",
"&  c #3E2424",
"*  c #471E1E",
"=  c #432424",
"-  c #432A2A",
";  c #532A2A",
":  c #4C3232",
">  c #593737",
",  c #692B2B",
"<  c #762929",
"1  c #6E3838",
"2  c #723332",
"3  c #6A4949",
"4  c #724646",
"5  c #755454",
"6  c #785656",
"7  c #9A1313",
"8  c #9A1B1B",
"9  c #A11616",
"0  c #AD1E1D",
"q  c #A71919",
"w  c #B01F1F",
"e  c #892C2C",
"r  c #8E3334",
"t  c #8C3B3B",
"y  c #9B3535",
"u  c #9F3738",
"i  c #9B3A3A",
"p  c #923D3D",
"a  c #A42525",
"s  c #AE2121",
"d  c #AA2A29",
"f  c #A22A2A",
"g  c #B32424",
"h  c #B82727",
"j  c #B82827",
"k  c #B52B2B",
"l  c #BB2C2C",
"z  c #B4302F",
"x  c #AE3333",
"c  c #A53A3A",
"v  c #AB3C3C",
"b  c #A53636",
"n  c #B53333",
"m  c #BC3434",
"M  c #B33C3C",
"N  c #BD3A3A",
"B  c #C02E2E",
"V  c #C13535",
"C  c #C13837",
"Z  c #C23738",
"A  c #C43C3C",
"S  c #C93E3E",
"D  c #BB403F",
"F  c #C9403F",
"G  c #C2403F",
"H  c #CA3F40",
"J  c #994A4A",
"K  c #8C5151",
"L  c #865F5F",
"P  c #A24545",
"I  c #AA4444",
"U  c #A64848",
"Y  c #B24444",
"T  c #BE4141",
"R  c #B34D4D",
"E  c #BA5959",
"W  c #8E6C6C",
"Q  c #966A6B",
"!  c #987373",
"~  c #A56767",
"^  c #BC6666",
"/  c #B56969",
"(  c #BA6666",
")  c #A47979",
"_  c #BC7F7F",
"`  c #C44342",
"'  c #CB4343",
"]  c #CF4748",
"[  c #C54B4A",
"{  c #CC4B4B",
"}  c #C54847",
"|  c #D14545",
" . c #D34C4C",
".. c #D94D4D",
"X. c #D14847",
"o. c #D2504F",
"O. c #C65252",
"+. c #CD5453",
"@. c #CE5B5B",
"#. c #D55353",
"$. c #D95555",
"%. c #DB5857",
"&. c #D45B5B",
"*. c #DB5C5C",
"=. c #E25D5D",
"-. c #C6605F",
";. c #DB605F",
":. c #D95F60",
">. c #C76767",
",. c #CD6262",
"<. c #C36D6D",
"1. c #CE6D6D",
"2. c #D56262",
"3. c #DD6363",
"4. c #D56B6B",
"5. c #DC6B6B",
"6. c #C17474",
"7. c #CC7474",
"8. c #CC7B7B",
"9. c #C67E7E",
"0. c #D57373",
"q. c #DB7373",
"w. c #D47C7C",
"e. c #DB7B7B",
"r. c #E26464",
"t. c #EB6565",
"y. c #E26C6C",
"u. c #EB6B6B",
"i. c #E16768",
"p. c #F06D6D",
"a. c #E16F70",
"s. c #E37474",
"d. c #EA7373",
"f. c #E27778",
"g. c #E47B7B",
"h. c #E97C7C",
"j. c #E57877",
"k. c #F17272",
"l. c #F17878",
"z. c #E6807F",
"x. c #BA8D8D",
"c. c #B38484",
"v. c #BF9393",
"b. c #CC8B8B",
"n. c #C68B8C",
"m. c #D38686",
"M. c #DD8484",
"N. c #D68989",
"B. c #DC8B8B",
"V. c #D29494",
"C. c #DA9696",
"Z. c #DD9C9B",
"A. c #D09898",
"S. c #E58383",
"D. c #E98383",
"F. c #E68B8B",
"G. c #E98C8C",
"H. c #F18281",
"J. c #E59393",
"K. c #E99393",
"L. c #E59C9C",
"P. c #EC9999",
"I. c #EA9D9D",
"U. c #ED9F9E",
"Y. c #EB9C9C",
"T. c #EDA09F",
"R. c #DCA2A2",
"E. c #D7A6A6",
"W. c #E4A3A3",
"Q. c #EBA3A3",
"!. c #EDACAC",
"~. c #F0ACAC",
"^. c #EDB1B1",
"/. c #EDB6B6",
"(. c #EDB4B4",
"). c #EFBEBE",
"_. c #EEBABA",
"`. c #F0B4B4",
"'. c #F0BBBB",
"]. c #EFC3C3",
"[. c #F3C2C2",
"{. c #F2C5C5",
"}. c #F1C3C3",
"|. c #F3CFCF",
" X c #F2CBCB",
".X c #F3D0CF",
"XX c #F4D2D1",
"oX c #F5D6D6",
"OX c #F4D3D3",
"+X c #F4DADA",
"@X c #F5DCDC",
/* pixels */
"                                                                                                                                ",
"                                                                                                                                ",
"                                                                                                                                ",
"                                                  U v x n n m n m n N x v i                                                     ",
"                                            c n m ` @.4.M.J.J.L.J.G.S.q.2.{ H N b                                               ",
"                                      U n m +.M.!.}.|.XX X X{.[.{.[.[.'.'.!.I.S.3.' N u                                         ",
"                                  P k A q./.XXoX|._.L.M.4.-.&.+.@.@.4.e.G.Q.!.`.~.U.g.#.A i                                     ",
"                                k N M.].@XXX!.w.[ n l m ` } { +.+.[ ` A m A { 4.K.Q.Q.I.S.$.G                                   ",
"                            Y h 4.].@XXXL.[ k m +.q.S.K.G.K.K.K.G.F.G.D.g.5.#.A Z +.g.K.T.P.s. .v                               ",
"                          n A W.@XoXW.T g } q.K.P.K.K.G.G.F.S.S.D.S.S.h.g.S.D.g.5.#.A { j.K.P.S.=.}                             ",
"                        s @.{.@X).@.g } S.U.P.K.K.G.G.F.D.S.L.^.G.g.S.g.g.g.g.s.g.d.y.+.A %.z.G.G.i. .                          ",
"                    >.g 0.OX@XL.k m g.Q.L.K.K.K.G.G.F.S.I._.).).F.5.S.g.g.s.j.f.s.s.s.s.5.{ ' a.D.G.y.$.,                       ",
"                    g e.+XOXw.0 +.P.I.J.J.K.K.G.F.F.L./.]._.!./.B.5.e.&.3.3.y.f.s.y.a.y.a.y.#.` 3.g.D.y.=.,                     ",
"                  g 0.+XOX4.0 q.T.L.K.K.K.G.F.F.L._.].).T.4.e._.S.2.2.s.s.f.S.s.y.y.y.y.i.5.i.*.' *.s.D.i.=.                    ",
"                m @.oXOX4.s g.Q.K.K.K.K.F.F.Q./.{.[.L.4.&.i.G.`.B.%.*.f.f.K.!.K.z.i.i.i.i.5.r.r.&.] *.a.h.i.&.                  ",
"              M }  X@X0.0 g.U.K.K.K.J.G.L._.].].I.4.2.5.S.g.F.^.Q.F.3.+.&.@.4.K.U.K.f.3.;.r.;.r.3.%.{ *.y.s.=.R                 ",
"            t V ^.@XC.0 q.T.L.K.J.F.T./. X].L.4.&.q.4.2.5.s.S.M.K.Q.U.g.y.3.#.#.4.G.K.F.s.:.*.=.*.*.$.#.*.y.y.t.2               ",
"            l e.@X_.j :.Q.J.G.J.I._. X}.L.4.*.q.G.e.y.D.y.3.5.%.&.4.J.Q.P.z.s.i.#.{ 3.S.G.S.a.:.%.%.%.o.&.&.y.t.3.              ",
"          u }  XXX[ A Y.P.K.I._. X].L.4.:.q.F.T./.K.y.z.e.2.g.g.s.3.#.4.F.P.G.g.y.*. .{ 3.g.D.h.5.%.%.%...:.%.i.t.J             ",
"          B L.@XB.g F.I.G./.{.].Z.4.:.s.G.I.^._.!.e.&.5.&.y.s.y.s.y.i.&.X.4.S.K.F.g.i.%.{ ] &.g.g.a.] $. .&.&.:.=.i.            ",
"        c { XX].m &.U.K.F./.).q.:.f.G.W./._.Q.e.&.*.q.5.f.F.S.S.S.S.g.S.q.$.{ &.g.D.D.s.3.$.X.` s.5.H $.o. .2.#.r.t.J           ",
"        l J.@XM.k K.K.K.F.!._.2.F.Y././.Q.0.&.:.s.h.s.K.Q.I.I.P.K.K.K.K.@.*.i.o.{ &.f.D.h.i.#.$.g.:.H $... .:.+.%.=.5.          ",
"      r ' {. XT @.Y.K.K.S.Q._.q.g.T._.F.&.3.g.z.g.f.S.T.K.K.K.G.G.F.K.s.} t.r.i.3. .` &.h.4.H *.h.&.H #. . . .4.X.=.u.1         ",
"      x 4.oXL.k F.K.G.K.S.L._.e.g.F.M.:.5.S.g.g.g.q.K.P.K.K.G.F.F.D.4.] %.i.*.3.*.=.$.#.g.&.] @.{ ` ' .. . .| 3.{ $.=.(         ",
"      m W.oX2.} K.G.K.G.S.F./.e.q.4.:.5.;.f.g.f.s.s.K.K.K.q.] { { { { *.i.3.*.*.*.*.%.r.h.{ } ` ' A '  . .X.| &.,.| =.s.+       ",
"      ' '.[.N 4.K.K.G.F.F.S.^.J.3.5.D.z.5.5.g.f.s.s.K.G.K.5.5.s.a.i.i.3.;.=.3.*.*.%.$.q.s.` ` ] ..o.` X. .X.' | 4.` ..d.>       ",
"    y &.OXQ.m S.K.G.F.F.F.g.P.Q.&.*.f.g.2.a.f.f.s.s.K.F.G.F.G.F.D.D.y.%.r.:.*.%.%.%.%.d.3.A ' H &.[ H X.X.] | ' q.} ..t.K       ",
"    x e. XM.Z K.G.F.F.S.S.z.S.!.q.:.&.&.3.j.f.s.s.y.D.G.D.D.D.z.z.h.h.+.%.=.*.%.%.$.2.h.{ H  .S T H  .X.| ' ' S 4.O.| =./       ",
"    n J.|.2.} K.G.F.S.F.S.S.s.Y.G.F.G.F.F.i.s.a.a.5.%.g.S.z.S.h.h.h.h.+.$.*.%.%.$.#.s.y.&.3.3.5.{ |  .] ' ' ' S &.@.S =.7.      ",
"    m W. X+.&.K.F.S.S.S.S.S.f.S.Q.T.Y.P.K.5.3.s.y.y.;.&.4.@.] +.g.g.j.{ #.%.%.%.$.3.s.y.d.y.i.3.m | ] ' ' ' ' S +.4.V ..e.@     ",
"    A !.].} 2.K.S.F.S.S.z.S.g.5.&.&.&.&.F.D.%.s.y.i.e.@.] { #.y.h.s.s.} $.%.$.$.$.{ ` ` Z &.y. .Z X.' ' ' F ' S } 0.V X.e.#     ",
"  y A (._.} 5.G.S.S.S.S.g.g.g.f.q.a.q.:.s.K.3.:.y.s.@.o.3.#.5.z.s.d.5.H %.$.#.%.#.X.| | ' 5.3.m ] | ' ' ' ' S A } w.m | z.&     ",
"  i G ^./.} q.G.S.S.z.z.z.z.j.f.g.4.+.&.%.D.S.%.3.y.{ r.r.*.y.j.s.h.#.' %.#.&.O.A } X.X.4.y.{ m ' | ' ' ' S A A ' w.m | g.=     ",
"  y ` ^./.' 5.D.S.S.g.z.e.j.j.f.5.&.y.:.] 3.D.s.%.*.&.*.:.i.z.s.s.#.Z $.#.$.{ S  .` S  .a.=.m ' ' ' ' H S S A A ' w.l | S.&     ",
"  r G !.`.{ 5.S.g.z.g.g.j.f.s.j.:.*.s.y.+.&.a.D.3.#.{ &.3.2.] } H S o.$.#...{ H #.#.N 3.y.] m ' ' ' H A S A A A } w.k S S.#     ",
"    A Q./.#.2.S.g.g.g.j.j.s.s.s.5.#.5.G.:.*.$.s.g.&.$.{ } ] o.o.#.%.$.o. .*.a.&.{ N +.s.%.l ' ' ' ` H S A A A C { 8.k | B.@     ",
"    N K._.;.+.D.g.g.g.f.s.s.s.a.a.3.&.h.h.&.%.o.j.s.$.*.=.*.*.%.$.$.$.&.&.s.i.H m } s.r.m A ' F S S S A A A A m @.1.k  .m.o     ",
"    n S.'.q.{ z.g.e.f.s.s.s.a.a.y.a.*.3.h.a.#.&.o.s.a.$.$.%.$.$.$.#.#.T A { ` m  .s.t.A m ' ' ' ' A A A A A Z m 0.E B #.c..     ",
"    y q./.S.] z.j.f.f.s.s.a.a.y.y.i.i.#.:.h.5.$.o.{ a.d.#.o.$.$.$. .} H  .' m ] i.i.{ k ' S ' A A S A A A Z Z l M.v B t.Q       ",
"    < %.^.I.' 5.j.f.s.a.a.a.y.y.i.5.i.3. .3.j.3.o. .` i.d.#. ...$.o.H ] ..+.N 3.y.o.k F ' H ' A A A A A C Z m Z B.d Z z.3       ",
"      X.T.!.&.&.g.s.a.s.y.5.y.5.i.5.3.i.*.' 3.d.r.o. .A &.a.%.&.+.' ' A ` N 2.y.#.k S ' F F A F A A A Z Z Z m +.z.a S J.#       ",
"      N S.!.f.{ s.s.y.y.a.y.i.3.i.3.3.r.3.*.' &.s.3.#.o.Z  .i.i.] '  .' } 4.y.#.k A ' F F S A A Z A C C m m k M.R d #.n..       ",
"      e t.~.G. .q.s.a.y.y.i.5.i.r.3.r.;.*.3.%.` #.*.Z } Z Z { u.] S X.&.y.t.{ k A ' ' S F A A A A C Z N m m N C.a V s.L         ",
"         .K.Q.2. .a.y.i.5.i.i.3.3.;.*.*.*.%.%.%.' N X.$.{ A &.i.` ] 5.a.r.A k S ' ' S A A A A A C C Z m m l 0.<.0 Z L.#         ",
"        v s.Q.D. .y.y.5.i.r.3.3.=.:.*.=.%.*.%.%.$.' ] %.+.A #.r.&.3.i.%.m m ' ' ' A S A A A Z Z C C m m m m W.f B 3.c..         ",
"          %.K.K.3.&.y.5.3.3.3.3.:.*.*.*.%.%.$.#.$.X.A T A X.#.=.=.r.] k N ' ' F ' A A A A Z C Z C m V N j w.^ 0 V Y.:           ",
"          M d.U.g.#.%.i.3.3.:.=.:.=.%.&.%.$.$.#...$. .]  .X.#.r.#.m l ' ' ' H H S S A A A C C Z m m m l } R.8 B 3.x..           ",
"            %.G.K.5.&.r.3.3.=.:.*.%.%.$.&.$.$...#. . . . . .S m z S ' ' H H S A A A Z Z C Z m N N m m l W.I g C Q.=             ",
"            i i.K.D.*.3.5.;.*.*.%.*.&.#.&.o.o.o.#.#. .#.X.X.{ ' ] ' ' ' ` F A A A A } N } ` Z m V m h B.6.9 B g.! .             ",
"              +.d.G.f.*.i.*.*.*.$.&.T ] } H { [ [ N ` } N S +.A } Z F } ` A { A N O.N N O.M l m m h 0.V.7 B &.E.o               ",
"                r.h.D.5.2.%.%.%.%.o.T  .` S } D ] m ] H N ` } m ' m F { N N G ` } T k A @.z m Z h 4.R.7 k S ^.-                 ",
"                < u.g.D.3.3.*.%.$.} A ..H ' H H } T } T D ` M m N ` } T N N N N N D [ T O.T m h 0.E.8 k Z Q.5 .                 ",
"                  t p.g.g.*.2.2.%.'  .o.' X.S X.H N S N N Z Z m m m m m m l m m l m N n N n k B.A.7 h m U.W .                   ",
"                    p k.s.h.*.&.j.:. ...o. . .X.] ] | ' ' ' ' ' ' A A A A A A N Z N m m j [ W.6.7 l V U.! .                     ",
"                      t k.d.s.3.+.q.5.X.|  .X.| ' | ' ' ' ' S ' ` A A A Z A C C Z N l m M.W.I 9 l A ~.W .                       ",
"                        2 d.d.y.i.{ 2.q.5. .' | ' ' ] ' H S A A S A A Z Z C C m j Z 0.W./ 8 g B @.^.6 .                         ",
"                          * 4.l.i.i.%.' 2.M.4.&.S S S S S A S A A Z C m B l Z +.M.R.6.f q l Z D.E.: .                           ",
"                              J l.d.r.=. .` +.0.e.e.4.&.{ ] S A A ` [ @.0.B.C.m.E a q l V 3.^.! O                               ",
"                                = ^ D.p.*.=.X.S A [ @.7.w.m.N.N.B.N.m.8.>.Y d 0 g B Z 2.P.v.: .                                 ",
"                                    ; / D.l.t.$...X.S V m z m l k k d g j l V A  .g.Q.x.> .                                     ",
"                                        $ K 8.D.h.u.=.%. .| | F S S | X.#.5.D.P.A.W = .                                         ",
"                                              & 4 ~ z.M.F.F.D.G.G.G.J.C.n.) 6 & X .                                             ",
"                                                      o # = : > : - % O . .                                                     ",
"                                                                                                                                "
};
