/* XPM */
static char *_02505f428904ee88224271e6230a3a3pHQ8dWMsUJkCuLUA[] = {
/* columns rows colors chars-per-pixel */
"32 32 154 2 ",
"   c None",
".  c #1B1717",
"X  c #1A1818",
"o  c #322424",
"O  c #362C2C",
"+  c #4A3635",
"@  c #573131",
"#  c #602929",
"$  c #702222",
"%  c #683232",
"&  c #554040",
"*  c #604444",
"=  c #6B4242",
"-  c #764040",
";  c #6D5050",
":  c #7D5A5A",
">  c #842F2F",
",  c #973F3F",
"<  c #9E3C3C",
"1  c #BB2F2F",
"2  c #A23333",
"3  c #A13E3E",
"4  c #BD3333",
"5  c #B63C3C",
"6  c #BE3D3D",
"7  c #C03635",
"8  c #C43B3B",
"9  c #C83F3F",
"0  c #C1403F",
"q  c #CA403F",
"w  c #C53F40",
"e  c #834A4A",
"r  c #8D4C4C",
"t  c #9F4444",
"y  c #9B4C4C",
"u  c #825B5B",
"i  c #9C5E5D",
"p  c #AB4242",
"a  c #AE4C4C",
"s  c #B34343",
"d  c #BD4141",
"f  c #BC4C4C",
"g  c #B45050",
"h  c #BD5252",
"j  c #B45D5D",
"k  c #BE5B5B",
"l  c #AA6767",
"z  c #BD6262",
"x  c #C54242",
"c  c #CB4343",
"v  c #C74847",
"b  c #C94847",
"n  c #CB4748",
"m  c #C64C4C",
"M  c #CD4B4A",
"N  c #D04747",
"B  c #D14C4C",
"V  c #D94F4F",
"C  c #C55454",
"Z  c #CB5454",
"A  c #CB5857",
"S  c #C55D5D",
"D  c #CC5C5B",
"F  c #D45353",
"G  c #DA5555",
"H  c #D55B5B",
"J  c #DB5C5C",
"K  c #E35B5B",
"L  c #DD605F",
"P  c #C46161",
"I  c #CA6363",
"U  c #C66B6B",
"Y  c #CC6B6A",
"T  c #D46363",
"R  c #DC6363",
"E  c #DB6768",
"W  c #D46E6E",
"Q  c #DD6B6B",
"!  c #D37171",
"~  c #DC7373",
"^  c #D57C7C",
"/  c #DD7B7B",
"(  c #E26262",
")  c #ED6565",
"_  c #E16C6C",
"`  c #F16D6D",
"'  c #E27373",
"]  c #EE7272",
"[  c #EF7877",
"{  c #E37778",
"}  c #E47B7B",
"|  c #E87C7C",
" . c #F27575",
".. c #F07D7D",
"X. c #E57F80",
"o. c #DB8484",
"O. c #DF8989",
"+. c #E58383",
"@. c #EA8383",
"#. c #E58B8B",
"$. c #E88E8E",
"%. c #E88D8D",
"&. c #EC8E8E",
"*. c #E98989",
"=. c #F18384",
"-. c #F18181",
";. c #F78A8A",
":. c #E29393",
">. c #E79090",
",. c #E59393",
"<. c #E59494",
"1. c #E69090",
"2. c #E99393",
"3. c #E99292",
"4. c #E99191",
"5. c #EA9595",
"6. c #E89797",
"7. c #EC9696",
"8. c #E79999",
"9. c #E49A99",
"0. c #E59E9E",
"q. c #E79F9F",
"w. c #E99999",
"e. c #EB9898",
"r. c #EA9898",
"t. c #E99D9D",
"y. c #E89F9F",
"u. c #EB9F9F",
"i. c #EC9D9D",
"p. c #EE9A9A",
"a. c #F29494",
"s. c #F39A9A",
"d. c #E3A1A0",
"f. c #E6A1A1",
"g. c #E6A2A3",
"h. c #EBA0A0",
"j. c #EBA3A3",
"k. c #E8A0A0",
"l. c #EBA4A4",
"z. c #EAA5A5",
"x. c #E8A7A7",
"c. c #EAA6A6",
"v. c #EDA4A4",
"b. c #EBADAD",
"n. c #F0A8A8",
"m. c #F0B0AF",
"M. c #ECB1B1",
"N. c #ECB3B2",
"B. c #EAB7B7",
"V. c #ECB5B5",
"C. c #ECB4B4",
"Z. c #ECBABA",
"A. c #EFBEBE",
"S. c #F2C1C1",
/* pixels */
"                                                                ",
"                            3 p p <                             ",
"                    p P o.9.q.h.t.9.#.W f                       ",
"                p ^ b.d.O.! I T T E ! +.7.#.C                   ",
"              S C.d.I L ~ X.+.+.+.} Q L H W &.| <               ",
"            ^ A.Y H *.w.$.%.u.M.+.} { { { L F ' =.C             ",
"          o.B.Z / i.4.%.h.M.0.x./ E ' } _ _ _ F R | h           ",
"        ! Z.C #.e.1.j.C.d./ Q w.#.R ~ #.+.' ( R G J  .t         ",
"      C S.D +.w.v.V.g.} ~ Q ' ~ o.#.} L E } } R J F R ` #       ",
"    $ v.^ Q v.B.g./ +.c.,.Q Q ' _ R / +.' H J ' _ F F ( D       ",
"    S N.A 5.c.9./ z.0./ Q { %.1.*.+.H J Q } R V Q B V H ) %     ",
"    9.X./ 2.w.,.#.#.E { } 2.8.#.#.Q J R G H Q Z G n B F J h     ",
"  < M.T %.%.%.w.E Q _ } { 2.X.L L J R J G ( R q n n B B F L     ",
"  k c.T 4.#.+.<.Q Q Q { ' *.*.*.@.R J J F _ Z c n N N n A K @   ",
"  ! :.Q %.+.+.+.1.#.X._ _ E W E | R F G J _ R R c N c q D G -   ",
"2 ^ O.~ *.+.| { Q E X.E _ L Z R | J F G B c H G q c c 9 Z V r   ",
"2 / o.~ +.} } { Q H R { J H ( ' Q B F M c M R w c c w 8 A V r   ",
"  ^ #.Q @.} { ' L ' H Q E F F Z B F G F v H F 8 c 9 9 7 A B e   ",
"  Y 1.R X.{ ' ' E _ ' G E L G G G Z F M M J 8 c 9 8 8 8 S B =   ",
"  g i.L { ' ' _ _ L R _ B L L V F c c M R 8 9 9 9 8 7 w C G +   ",
"  > s.E ' ' _ _ R ( H J ( n F J M 9 Z J 8 9 q 9 8 8 4 C f S .   ",
"    X.X.R _ E ( R L J V M N q H M R J 8 9 x 8 8 8 4 4 P 9 i     ",
"    a 7.R E ( R L J J G B n n J J B 8 9 9 9 8 8 4 1 m f G +     ",
"      ..} J R L J J G G V B N M c 8 c 9 8 8 7 7 4 7 U 8 l       ",
"      , ;.Q L J H M B M M M n c 9 c 9 x x 8 d 4 4 Y 5 T O       ",
"        D @.L J M c c x 0 x 6 6 6 x 6 8 d d d 4 Y s H ;         ",
"          T [ L J B N N c 9 9 8 8 4 7 4 4 4 x U 5 F u           ",
"            P  .R H F B c c 9 9 8 8 7 7 0 S z 4 H :             ",
"              y ] ( H H H Z M M v m Z P S d c U &               ",
"                  j _ K G Z Z C C C m c B U u .                 ",
"                      e j I T H H D z i * .                     ",
"                              o o                               "
};
