/* XPM */
static char *_bc7315c177047fca852b5ae94be8ec653wUsFNmetHJhUAA[] = {
/* columns rows colors chars-per-pixel */
"16 16 169 2 ",
"   c None",
".  c #4C2626",
"X  c #5C3232",
"o  c #683434",
"O  c #703A3A",
"+  c #7C3F3F",
"@  c #BE3737",
"#  c #BE3B3B",
"$  c #BF3D3C",
"%  c #C13635",
"&  c #C23737",
"*  c #C03838",
"=  c #C23A3A",
"-  c #C23D3D",
";  c #C33D3D",
":  c #C53D3C",
">  c #C43D3D",
",  c #C63D3D",
"<  c #C63E3E",
"1  c #C83F3F",
"2  c #C93F3F",
"3  c #834040",
"4  c #874545",
"5  c #944343",
"6  c #9D4747",
"7  c #965353",
"8  c #B34F4F",
"9  c #AD5252",
"0  c #AD5353",
"q  c #B15050",
"w  c #B55252",
"e  c #B25555",
"r  c #B65757",
"t  c #B25B5B",
"y  c #B75858",
"u  c #B95B5B",
"i  c #BF5A5A",
"p  c #C24142",
"a  c #C44040",
"s  c #C64444",
"d  c #CA4241",
"f  c #CB4342",
"g  c #C84545",
"h  c #CB4646",
"j  c #CC4545",
"k  c #CB4E4E",
"l  c #CF4C4C",
"z  c #CF4D4C",
"x  c #CE4D4D",
"c  c #CE4F4F",
"v  c #CF4F4F",
"b  c #D04A4A",
"n  c #D14A4A",
"m  c #D04B4B",
"M  c #D14D4C",
"N  c #D04D4D",
"B  c #D04E4D",
"V  c #CF5555",
"C  c #CC5655",
"Z  c #C65858",
"A  c #D05151",
"S  c #D35050",
"D  c #D35151",
"F  c #D05353",
"G  c #D25252",
"H  c #D35252",
"J  c #D65252",
"K  c #D65453",
"L  c #D05555",
"P  c #D25756",
"I  c #D45555",
"U  c #D65656",
"Y  c #D75757",
"T  c #D95656",
"R  c #D85757",
"E  c #DA5656",
"W  c #DE5555",
"Q  c #D35858",
"!  c #D75A5A",
"~  c #DB5A5A",
"^  c #DA5B5A",
"/  c #DB5B5B",
"(  c #DF5B5B",
")  c #D85C5C",
"_  c #D85F5F",
"`  c #DA5E5E",
"'  c #DC5C5C",
"]  c #E35E5E",
"[  c #C86464",
"{  c #DB6161",
"}  c #DD6060",
"|  c #DD6160",
" . c #DC6161",
".. c #DE6161",
"X. c #DC6363",
"o. c #DE6363",
"O. c #DA6465",
"+. c #DC6464",
"@. c #DC6565",
"#. c #DF6869",
"$. c #DE6969",
"%. c #DE6A6A",
"&. c #DF6B6B",
"*. c #DD6C6C",
"=. c #DF6F6F",
"-. c #CB7676",
";. c #CB7777",
":. c #CC7676",
">. c #DF7070",
",. c #D87676",
"<. c #DE7474",
"1. c #DE7676",
"2. c #D77F7F",
"3. c #DA7C7C",
"4. c #DB7C7C",
"5. c #E36363",
"6. c #E86464",
"7. c #E16A6A",
"8. c #E06B6B",
"9. c #E16C6C",
"0. c #E06E6E",
"q. c #E26F6F",
"w. c #EA6A6A",
"e. c #E07171",
"r. c #E17171",
"t. c #E27171",
"y. c #E27272",
"u. c #E17474",
"i. c #E37474",
"p. c #E07676",
"a. c #E37676",
"s. c #E27777",
"d. c #E47675",
"f. c #EB7372",
"g. c #E17878",
"h. c #E07B7A",
"j. c #E17B7B",
"k. c #E07C7C",
"l. c #E27C7C",
"z. c #E17F7F",
"x. c #E57C7C",
"c. c #E57D7D",
"v. c #E47F7F",
"b. c #D68080",
"n. c #DE8887",
"m. c #E18181",
"M. c #E28181",
"N. c #E58282",
"B. c #E78383",
"V. c #E18585",
"C. c #E38585",
"Z. c #E38787",
"A. c #E68484",
"S. c #E48686",
"D. c #E68787",
"F. c #E88080",
"G. c #E28989",
"H. c #E58888",
"J. c #E68B8B",
"K. c #E58C8C",
"L. c #E78D8D",
"P. c #E79393",
"I. c #E69595",
"U. c #E79595",
"Y. c #E59696",
"T. c #E69797",
"R. c #E99E9E",
"E. c #EA9F9F",
"W. c #E9A1A1",
/* pixels */
"              u r               ",
"          -.2.3.3.,.[           ",
"      -.n.M.D.P.v.e.q.e.q       ",
"    -.V.L.R.T.T.4.d.d.5.w.6     ",
"  7 H.T.W.T.<.e.v.<.>.%./ 6.    ",
"  b.V.R.G.v.M.H.<.{ O.{ H W 8   ",
"  H.D.L.<.0.B.B.%./ } H j n Q   ",
"y V.D.c.h.u.@.*.0.J U ! j f R   ",
"Z M.c.d.+.%.) / U J l l , , U . ",
"5 F.d.t.#.@.) R l c H 1 , - C   ",
"  c.0.7.} ) B H H c 1 , & s w   ",
"  t f.} ) W l B l 1 , & @ L O   ",
"    e.5.c j g , : ; $ = k 9     ",
"      &.] l f : = # p C e       ",
"        0 } ( J H L Z 4         ",
"            o 3 + X             "
};
