<?xml version="1.0" standalone="no"?>
<!DOCTYPE svg PUBLIC "-//W3C//DTD SVG 20010904//EN"
 "http://www.w3.org/TR/2001/REC-SVG-20010904/DTD/svg10.dtd">
<svg version="1.0" xmlns="http://www.w3.org/2000/svg"
 width="128.000000pt" height="128.000000pt" viewBox="0 0 128.000000 128.000000"
 preserveAspectRatio="xMidYMid meet">

<g transform="translate(0.000000,128.000000) scale(0.100000,-0.100000)"
fill="#e62129" stroke="none">
<path d="M368 1044 l-266 -135 5 -57 c5 -64 33 -177 58 -234 l15 -38 65 0 c44
0 65 -4 65 -12 0 -26 84 -152 138 -207 31 -32 83 -75 115 -96 l57 -38 0 -69
c0 -52 4 -70 15 -74 40 -16 254 149 348 267 61 76 157 245 157 277 0 8 -19 12
-59 12 l-60 0 19 56 c11 31 22 77 26 103 l6 47 -194 94 -193 95 -5 70 c-4 61
-8 70 -25 72 -11 2 -140 -58 -287 -133z m252 -10 c0 -40 3 -54 13 -51 12 4
361 -165 370 -180 7 -12 -21 -112 -48 -170 l-24 -53 60 0 c32 0 59 -2 59 -5 0
-12 -45 -93 -80 -145 -21 -30 -64 -82 -96 -115 -57 -58 -161 -135 -183 -135
-7 0 -11 24 -11 62 0 59 -1 60 -18 44 -18 -15 -22 -13 -87 41 -76 64 -158 166
-205 255 l-31 58 -63 0 -64 0 -21 78 c-12 43 -21 96 -21 118 l0 39 213 107
c116 59 218 107 225 107 8 1 12 -16 12 -55z"/>
<path d="M480 1000 c-11 -11 -20 -24 -20 -30 0 -5 -54 -37 -120 -70 -113 -57
-120 -62 -114 -85 3 -14 1 -38 -6 -54 -21 -52 27 -104 73 -80 42 23 50 64 17
94 -11 10 -20 22 -20 26 0 5 44 31 98 58 69 34 106 48 124 44 31 -6 68 26 68
57 0 26 -34 60 -60 60 -11 0 -29 -9 -40 -20z m72 -7 c22 -20 23 -41 1 -65 -20
-22 -41 -23 -65 -1 -24 22 -23 49 4 67 28 20 37 20 60 -1z m-238 -245 c12 -35
-6 -58 -45 -58 -41 0 -60 41 -34 70 26 29 67 23 79 -12z"/>
<path d="M539 855 c-34 -18 -50 -57 -56 -132 -5 -56 -3 -64 20 -87 l26 -26
-30 -29 c-35 -36 -37 -70 -6 -107 l24 -27 87 10 c121 15 156 52 156 167 0 77
-21 96 -107 96 -55 0 -63 2 -63 19 0 15 10 19 66 24 75 6 111 26 131 75 l13
32 -117 0 c-81 -1 -126 -5 -144 -15z m111 -259 c0 -26 -21 -29 -43 -7 l-21 21
32 0 c21 0 32 -5 32 -14z m-62 -22 c35 -24 28 -84 -12 -103 -25 -12 -31 -11
-55 6 -33 26 -39 65 -12 92 25 25 49 27 79 5z"/>
<path d="M861 513 c-12 -14 -19 -33 -17 -42 6 -18 -36 -71 -56 -71 -48 0 -77
-70 -42 -104 32 -32 94 -7 94 38 0 25 45 76 83 95 40 20 48 60 18 90 -28 28
-55 26 -80 -6z m74 -3 c24 -27 13 -68 -22 -76 -20 -5 -31 -2 -45 16 -23 28
-23 35 2 60 25 25 42 25 65 0z m-107 -169 c2 -12 -2 -29 -9 -37 -15 -19 -59
-14 -72 7 -14 22 -1 67 21 72 24 6 56 -16 60 -42z"/>
<path d="M737 1122 c-39 -43 1 -114 54 -97 17 6 62 -12 182 -71 l159 -79 -5
-36 c-3 -20 -14 -46 -26 -58 -26 -26 -27 -55 -1 -81 36 -36 94 -16 90 31 -1
13 -2 60 -1 104 l0 81 -176 88 c-97 48 -185 99 -195 112 -23 29 -58 31 -81 6z
m71 -4 c19 -19 15 -66 -7 -78 -27 -14 -37 -13 -55 6 -32 31 -14 84 29 84 12 0
26 -5 33 -12z m362 -348 c25 -25 25 -32 2 -60 -14 -18 -25 -21 -45 -16 -35 8
-46 49 -22 76 23 25 40 25 65 0z"/>
<path d="M232 524 c-12 -8 -22 -23 -21 -32 0 -13 2 -12 9 4 4 12 16 24 26 28
21 8 64 -19 64 -40 0 -52 -56 -73 -84 -32 -9 12 -16 17 -16 11 0 -13 27 -43
39 -43 4 0 26 -27 49 -59 23 -33 69 -83 102 -112 33 -30 60 -59 60 -65 0 -6 9
-19 19 -28 27 -25 72 -17 90 15 13 24 13 29 -2 53 -13 19 -26 26 -51 26 -29 0
-43 10 -99 70 -85 90 -102 116 -99 155 5 49 -46 78 -86 49z m322 -300 c9 -8
16 -22 16 -29 0 -36 -62 -59 -88 -33 -15 15 -15 51 0 66 17 17 54 15 72 -4z"/>
</g>
</svg>
