<?xml version="1.0" standalone="no"?>
<!DOCTYPE svg PUBLIC "-//W3C//DTD SVG 20010904//EN"
 "http://www.w3.org/TR/2001/REC-SVG-20010904/DTD/svg10.dtd">
<svg version="1.0" xmlns="http://www.w3.org/2000/svg"
 width="300.000000pt" height="100.000000pt" viewBox="0 0 300.000000 100.000000"
 preserveAspectRatio="xMidYMid meet">

<g transform="translate(0.000000,100.000000) scale(0.100000,-0.100000)"
fill="#e62129" stroke="none">
<path d="M323 867 c-122 -62 -224 -115 -228 -119 -10 -10 12 -139 37 -213 l21
-65 53 0 53 0 33 -62 c39 -74 118 -162 188 -209 l49 -34 1 -61 c0 -94 19 -93
158 9 117 85 227 222 277 344 l23 58 -53 3 -54 3 15 34 c7 18 16 57 20 87 l6
53 -166 82 -165 82 -3 58 c-3 49 -6 58 -23 60 -11 1 -120 -48 -242 -110z m220
-54 c7 2 83 -31 170 -75 l158 -79 -6 -32 c-6 -28 -25 -81 -50 -139 -6 -16 -1
-18 37 -18 25 0 48 -3 51 -7 10 -9 -47 -108 -104 -178 -45 -58 -109 -114 -177
-157 l-32 -20 0 57 c0 50 -2 56 -15 45 -32 -27 -169 108 -245 242 l-36 63 -56
3 -56 3 -16 64 c-9 35 -16 80 -16 100 l0 35 188 94 187 94 3 -50 c2 -33 7 -48
15 -45z"/>
<path d="M409 817 c-7 -15 -42 -39 -101 -68 -49 -24 -93 -48 -98 -54 -5 -6
-10 -37 -12 -69 -3 -66 10 -84 55 -72 33 8 43 40 23 71 -9 13 -16 29 -16 34 0
15 151 84 179 82 47 -2 80 56 49 87 -21 21 -67 15 -79 -11z m71 -2 c26 -32
-13 -81 -47 -59 -35 22 -23 74 17 74 10 0 23 -7 30 -15z m-216 -191 c20 -19
20 -38 2 -54 -23 -19 -61 -8 -64 18 -7 44 32 67 62 36z"/>
<path d="M485 711 c-34 -14 -54 -45 -65 -99 -11 -61 -1 -97 31 -107 21 -7 21
-8 -10 -32 -37 -29 -42 -72 -10 -104 18 -18 28 -20 78 -14 112 14 136 36 148
135 8 66 -16 92 -90 98 -79 6 -75 27 5 36 66 7 99 28 113 74 6 22 5 22 -87 21
-51 0 -102 -4 -113 -8z m75 -235 c0 -24 -14 -25 -39 -5 l-23 19 31 0 c20 0 31
-5 31 -14z m-45 -22 c39 -40 -14 -110 -60 -80 -23 16 -32 61 -14 82 15 19 54
18 74 -2z"/>
<path d="M747 412 c-10 -10 -17 -27 -17 -38 0 -28 -19 -51 -60 -72 -28 -13
-35 -23 -35 -46 0 -18 7 -33 20 -40 18 -10 18 -10 3 3 -24 18 -23 58 1 71 43
23 77 -25 44 -62 -14 -16 -14 -20 -3 -16 8 2 20 18 25 34 16 46 45 83 68 86
32 5 46 52 22 78 -23 25 -47 26 -68 2z m67 -14 c15 -25 -3 -52 -37 -56 -21 -3
-28 2 -33 22 -12 49 43 76 70 34z"/>
<path d="M635 930 c-15 -16 -17 -26 -9 -48 8 -23 15 -27 50 -28 29 -1 75 -20
165 -67 118 -63 124 -67 127 -99 2 -24 -3 -39 -18 -53 -25 -23 -26 -47 -2 -68
21 -19 40 -21 62 -7 12 7 15 30 15 101 l0 91 -149 75 c-82 41 -158 86 -169 99
-23 29 -48 31 -72 4z m65 -5 c26 -32 -13 -81 -47 -59 -35 22 -23 74 17 74 10
0 23 -7 30 -15z m310 -300 c15 -18 10 -45 -12 -59 -35 -22 -74 27 -48 59 16
19 44 19 60 0z"/>
<path d="M202 414 c-44 -31 -34 -48 131 -216 37 -38 67 -73 67 -77 0 -13 35
-41 52 -41 8 0 23 9 33 20 28 31 10 74 -32 78 -25 3 -48 20 -107 83 -66 70
-75 84 -70 108 5 22 1 32 -17 45 -29 20 -29 20 -57 0z m53 -7 c21 -16 15 -61
-10 -71 -41 -15 -75 45 -40 71 11 7 22 13 25 13 3 0 14 -6 25 -13z m225 -252
c15 -18 10 -45 -12 -59 -33 -20 -69 20 -54 60 7 18 50 18 66 -1z"/>
</g>
</svg>
